<svg xmlns="http://www.w3.org/2000/svg" width="1404" height="1152" viewBox="0 0 1404 1152" font-family="Inter, Roboto, Arial, sans-serif">
<rect width="1404" height="1152" fill="#0b0c0e"/>
<text x="16" y="30" fill="#d8d9da" font-size="16" font-weight="600">NGINX / Requests &amp; Latency</text>
<text x="16" y="48" fill="#8e8e8e" font-size="11">Schematic layout · datasource: prometheus · uid: nginx-requests-and-latency</text>
<rect x="16" y="56" width="1056" height="26" fill="#22252b" rx="3"/>
<text x="26" y="75" fill="#d8d9da" font-size="12" font-weight="600">▾ Service health — read these first</text>
<rect x="18" y="88" width="260" height="234" fill="#181b1f" stroke="#2c3235" rx="3"/>
<rect x="18" y="88" width="260" height="3" fill="#3274d9" rx="2"/>
<text x="26" y="106" fill="#d8d9da" font-size="11" font-weight="500">Request rate</text>
<text x="26" y="120" fill="#8e8e8e" font-size="9">stat · reqps</text>
<text x="148" y="222" fill="#3274d9" font-size="20" font-weight="700" text-anchor="middle">●</text>
<rect x="282" y="88" width="260" height="234" fill="#181b1f" stroke="#2c3235" rx="3"/>
<rect x="282" y="88" width="260" height="3" fill="#3274d9" rx="2"/>
<text x="290" y="106" fill="#d8d9da" font-size="11" font-weight="500">5xx error ratio</text>
<text x="290" y="120" fill="#8e8e8e" font-size="9">stat · percent</text>
<text x="412" y="222" fill="#3274d9" font-size="20" font-weight="700" text-anchor="middle">●</text>
<rect x="546" y="88" width="260" height="234" fill="#181b1f" stroke="#2c3235" rx="3"/>
<rect x="546" y="88" width="260" height="3" fill="#3274d9" rx="2"/>
<text x="554" y="106" fill="#d8d9da" font-size="11" font-weight="500">Upstream response p95</text>
<text x="554" y="120" fill="#8e8e8e" font-size="9">stat · s</text>
<text x="676" y="222" fill="#3274d9" font-size="20" font-weight="700" text-anchor="middle">●</text>
<rect x="810" y="88" width="260" height="234" fill="#181b1f" stroke="#2c3235" rx="3"/>
<rect x="810" y="88" width="260" height="3" fill="#3274d9" rx="2"/>
<text x="818" y="106" fill="#d8d9da" font-size="11" font-weight="500">4xx error ratio</text>
<text x="818" y="120" fill="#8e8e8e" font-size="9">stat · percent</text>
<text x="940" y="222" fill="#3274d9" font-size="20" font-weight="700" text-anchor="middle">●</text>
<rect x="16" y="326" width="1056" height="26" fill="#22252b" rx="3"/>
<text x="26" y="345" fill="#d8d9da" font-size="12" font-weight="600">▾ Status code breakdown</text>
<rect x="18" y="358" width="524" height="234" fill="#181b1f" stroke="#2c3235" rx="3"/>
<rect x="18" y="358" width="524" height="3" fill="#3274d9" rx="2"/>
<text x="26" y="376" fill="#d8d9da" font-size="11" font-weight="500">Requests by status class</text>
<text x="26" y="390" fill="#8e8e8e" font-size="9">timeseries · reqps</text>
<polyline points="28,488 112,474 196,488 280,474 364,488 448,474 532,488" fill="none" stroke="#3274d9" stroke-width="1.5" opacity="0.8"/>
<rect x="546" y="358" width="524" height="234" fill="#181b1f" stroke="#2c3235" rx="3"/>
<rect x="546" y="358" width="524" height="3" fill="#3274d9" rx="2"/>
<text x="554" y="376" fill="#d8d9da" font-size="11" font-weight="500">5xx rate by virtual host</text>
<text x="554" y="390" fill="#8e8e8e" font-size="9">timeseries · reqps</text>
<polyline points="556,488 640,474 724,488 808,474 892,488 976,474 1060,488" fill="none" stroke="#3274d9" stroke-width="1.5" opacity="0.8"/>
<rect x="16" y="596" width="1056" height="26" fill="#22252b" rx="3"/>
<text x="26" y="615" fill="#d8d9da" font-size="12" font-weight="600">▾ Upstreams — where the latency lives</text>
<rect x="18" y="628" width="524" height="234" fill="#181b1f" stroke="#2c3235" rx="3"/>
<rect x="18" y="628" width="524" height="3" fill="#3274d9" rx="2"/>
<text x="26" y="646" fill="#d8d9da" font-size="11" font-weight="500">Upstream response time</text>
<text x="26" y="660" fill="#8e8e8e" font-size="9">timeseries · s</text>
<polyline points="28,758 112,744 196,758 280,744 364,758 448,744 532,758" fill="none" stroke="#3274d9" stroke-width="1.5" opacity="0.8"/>
<rect x="546" y="628" width="524" height="234" fill="#181b1f" stroke="#2c3235" rx="3"/>
<rect x="546" y="628" width="524" height="3" fill="#f2cc0c" rx="2"/>
<text x="554" y="646" fill="#d8d9da" font-size="11" font-weight="500">Upstream 5xx ratio (top 10)</text>
<text x="554" y="660" fill="#8e8e8e" font-size="9">bargauge · percent</text>
<rect x="556" y="746" width="252" height="5" fill="#f2cc0c" opacity="0.70" rx="2"/>
<rect x="556" y="755" width="328" height="5" fill="#f2cc0c" opacity="0.55" rx="2"/>
<rect x="556" y="764" width="403" height="5" fill="#f2cc0c" opacity="0.40" rx="2"/>
<rect x="16" y="866" width="1056" height="26" fill="#22252b" rx="3"/>
<text x="26" y="885" fill="#d8d9da" font-size="12" font-weight="600">▾ Traffic trend</text>
<rect x="18" y="898" width="1052" height="234" fill="#181b1f" stroke="#2c3235" rx="3"/>
<rect x="18" y="898" width="1052" height="3" fill="#3274d9" rx="2"/>
<text x="26" y="916" fill="#d8d9da" font-size="11" font-weight="500">Request rate by virtual host</text>
<text x="26" y="930" fill="#8e8e8e" font-size="9">timeseries · reqps</text>
<polyline points="28,1028 200,1014 372,1028 544,1014 716,1028 888,1014 1060,1028" fill="none" stroke="#3274d9" stroke-width="1.5" opacity="0.8"/>
<rect x="1088" y="56" width="284" height="1080" fill="#181b1f" stroke="#2c3235" rx="4"/>
<text x="1100" y="78" fill="#d8d9da" font-size="12" font-weight="700">What to look for</text>
<circle cx="1106" cy="94" r="4" fill="#3274d9"/>
<text x="1118" y="98" fill="#8e8e8e" font-size="10">What is the request rate right now and</text>
<text x="1118" y="111" fill="#8e8e8e" font-size="10">is it trending up?</text>
<circle cx="1106" cy="128" r="4" fill="#3274d9"/>
<text x="1118" y="132" fill="#8e8e8e" font-size="10">What share of responses are 5xx, and on</text>
<text x="1118" y="145" fill="#8e8e8e" font-size="10">which virtual host?</text>
<circle cx="1106" cy="162" r="4" fill="#3274d9"/>
<text x="1118" y="166" fill="#8e8e8e" font-size="10">How slow is the 95th-percentile upstream</text>
<text x="1118" y="179" fill="#8e8e8e" font-size="10">response time?</text>
<circle cx="1106" cy="196" r="4" fill="#3274d9"/>
<text x="1118" y="200" fill="#8e8e8e" font-size="10">Which upstream is returning the most</text>
<text x="1118" y="213" fill="#8e8e8e" font-size="10">5xx?</text>
<circle cx="1106" cy="230" r="4" fill="#73bf69"/>
<text x="1118" y="234" fill="#8e8e8e" font-size="10">Green: within expected range</text>
<circle cx="1106" cy="251" r="4" fill="#f2cc0c"/>
<text x="1118" y="255" fill="#8e8e8e" font-size="10">Yellow: investigate — approaching a</text>
<text x="1118" y="268" fill="#8e8e8e" font-size="10">limit</text>
<circle cx="1106" cy="285" r="4" fill="#e02f44"/>
<text x="1118" y="289" fill="#8e8e8e" font-size="10">Red: act now — threshold breached</text>
</svg>
