<svg xmlns="http://www.w3.org/2000/svg" width="1404" height="1152" viewBox="0 0 1404 1152" font-family="Inter, Roboto, Arial, sans-serif">
<rect width="1404" height="1152" fill="#0b0c0e"/>
<text x="16" y="30" fill="#d8d9da" font-size="16" font-weight="600">Kubernetes / API Server</text>
<text x="16" y="48" fill="#8e8e8e" font-size="11">Schematic layout · datasource: prometheus · uid: kubernetes-apiserver</text>
<rect x="16" y="56" width="1056" height="26" fill="#22252b" rx="3"/>
<text x="26" y="75" fill="#d8d9da" font-size="12" font-weight="600">▾ SLO health — read these first</text>
<rect x="18" y="88" width="172" height="234" fill="#181b1f" stroke="#2c3235" rx="3"/>
<rect x="18" y="88" width="172" height="3" fill="#3274d9" rx="2"/>
<text x="26" y="106" fill="#d8d9da" font-size="11" font-weight="500">5xx error ratio</text>
<text x="26" y="120" fill="#8e8e8e" font-size="9">stat · percent</text>
<text x="104" y="222" fill="#3274d9" font-size="20" font-weight="700" text-anchor="middle">●</text>
<rect x="194" y="88" width="172" height="234" fill="#181b1f" stroke="#2c3235" rx="3"/>
<rect x="194" y="88" width="172" height="3" fill="#3274d9" rx="2"/>
<text x="202" y="106" fill="#d8d9da" font-size="11" font-weight="500">Read p99 latency</text>
<text x="202" y="120" fill="#8e8e8e" font-size="9">stat · s</text>
<text x="280" y="222" fill="#3274d9" font-size="20" font-weight="700" text-anchor="middle">●</text>
<rect x="370" y="88" width="172" height="234" fill="#181b1f" stroke="#2c3235" rx="3"/>
<rect x="370" y="88" width="172" height="3" fill="#3274d9" rx="2"/>
<text x="378" y="106" fill="#d8d9da" font-size="11" font-weight="500">Write p99 latency</text>
<text x="378" y="120" fill="#8e8e8e" font-size="9">stat · s</text>
<text x="456" y="222" fill="#3274d9" font-size="20" font-weight="700" text-anchor="middle">●</text>
<rect x="546" y="88" width="172" height="234" fill="#181b1f" stroke="#2c3235" rx="3"/>
<rect x="546" y="88" width="172" height="3" fill="#3274d9" rx="2"/>
<text x="554" y="106" fill="#d8d9da" font-size="11" font-weight="500">Inflight requests</text>
<text x="554" y="120" fill="#8e8e8e" font-size="9">stat · short</text>
<text x="632" y="222" fill="#3274d9" font-size="20" font-weight="700" text-anchor="middle">●</text>
<rect x="722" y="88" width="172" height="234" fill="#181b1f" stroke="#2c3235" rx="3"/>
<rect x="722" y="88" width="172" height="3" fill="#3274d9" rx="2"/>
<text x="730" y="106" fill="#d8d9da" font-size="11" font-weight="500">APF rejections</text>
<text x="730" y="120" fill="#8e8e8e" font-size="9">stat · reqps</text>
<text x="808" y="222" fill="#3274d9" font-size="20" font-weight="700" text-anchor="middle">●</text>
<rect x="16" y="326" width="1056" height="26" fill="#22252b" rx="3"/>
<text x="26" y="345" fill="#d8d9da" font-size="12" font-weight="600">▾ Latency</text>
<rect x="18" y="358" width="524" height="234" fill="#181b1f" stroke="#2c3235" rx="3"/>
<rect x="18" y="358" width="524" height="3" fill="#3274d9" rx="2"/>
<text x="26" y="376" fill="#d8d9da" font-size="11" font-weight="500">Request p99 latency by verb</text>
<text x="26" y="390" fill="#8e8e8e" font-size="9">timeseries · s</text>
<polyline points="28,488 112,474 196,488 280,474 364,488 448,474 532,488" fill="none" stroke="#3274d9" stroke-width="1.5" opacity="0.8"/>
<rect x="546" y="358" width="524" height="234" fill="#181b1f" stroke="#2c3235" rx="3"/>
<rect x="546" y="358" width="524" height="3" fill="#3274d9" rx="2"/>
<text x="554" y="376" fill="#d8d9da" font-size="11" font-weight="500">etcd request p99 (from apiserver)</text>
<text x="554" y="390" fill="#8e8e8e" font-size="9">timeseries · s</text>
<polyline points="556,488 640,474 724,488 808,474 892,488 976,474 1060,488" fill="none" stroke="#3274d9" stroke-width="1.5" opacity="0.8"/>
<rect x="16" y="596" width="1056" height="26" fill="#22252b" rx="3"/>
<text x="26" y="615" fill="#d8d9da" font-size="12" font-weight="600">▾ Traffic and errors</text>
<rect x="18" y="628" width="348" height="234" fill="#181b1f" stroke="#2c3235" rx="3"/>
<rect x="18" y="628" width="348" height="3" fill="#3274d9" rx="2"/>
<text x="26" y="646" fill="#d8d9da" font-size="11" font-weight="500">Request rate by verb</text>
<text x="26" y="660" fill="#8e8e8e" font-size="9">timeseries · reqps</text>
<polyline points="28,758 83,744 137,758 192,744 247,758 301,744 356,758" fill="none" stroke="#3274d9" stroke-width="1.5" opacity="0.8"/>
<rect x="370" y="628" width="348" height="234" fill="#181b1f" stroke="#2c3235" rx="3"/>
<rect x="370" y="628" width="348" height="3" fill="#3274d9" rx="2"/>
<text x="378" y="646" fill="#d8d9da" font-size="11" font-weight="500">Error rate by code class</text>
<text x="378" y="660" fill="#8e8e8e" font-size="9">timeseries · reqps</text>
<polyline points="380,758 435,744 489,758 544,744 599,758 653,744 708,758" fill="none" stroke="#3274d9" stroke-width="1.5" opacity="0.8"/>
<rect x="722" y="628" width="348" height="234" fill="#181b1f" stroke="#2c3235" rx="3"/>
<rect x="722" y="628" width="348" height="3" fill="#8e8e8e" rx="2"/>
<text x="730" y="646" fill="#d8d9da" font-size="11" font-weight="500">Top resources by 5xx rate</text>
<text x="730" y="660" fill="#8e8e8e" font-size="9">table · reqps</text>
<rect x="732" y="746" width="164" height="5" fill="#8e8e8e" opacity="0.70" rx="2"/>
<rect x="732" y="755" width="213" height="5" fill="#8e8e8e" opacity="0.55" rx="2"/>
<rect x="732" y="764" width="262" height="5" fill="#8e8e8e" opacity="0.40" rx="2"/>
<rect x="16" y="866" width="1056" height="26" fill="#22252b" rx="3"/>
<text x="26" y="885" fill="#d8d9da" font-size="12" font-weight="600">▾ Saturation and flow control</text>
<rect x="18" y="898" width="348" height="234" fill="#181b1f" stroke="#2c3235" rx="3"/>
<rect x="18" y="898" width="348" height="3" fill="#3274d9" rx="2"/>
<text x="26" y="916" fill="#d8d9da" font-size="11" font-weight="500">Inflight requests by kind</text>
<text x="26" y="930" fill="#8e8e8e" font-size="9">timeseries · short</text>
<polyline points="28,1028 83,1014 137,1028 192,1014 247,1028 301,1014 356,1028" fill="none" stroke="#3274d9" stroke-width="1.5" opacity="0.8"/>
<rect x="370" y="898" width="348" height="234" fill="#181b1f" stroke="#2c3235" rx="3"/>
<rect x="370" y="898" width="348" height="3" fill="#3274d9" rx="2"/>
<text x="378" y="916" fill="#d8d9da" font-size="11" font-weight="500">APF rejections by reason</text>
<text x="378" y="930" fill="#8e8e8e" font-size="9">timeseries · reqps</text>
<polyline points="380,1028 435,1014 489,1028 544,1014 599,1028 653,1014 708,1028" fill="none" stroke="#3274d9" stroke-width="1.5" opacity="0.8"/>
<rect x="722" y="898" width="348" height="234" fill="#181b1f" stroke="#2c3235" rx="3"/>
<rect x="722" y="898" width="348" height="3" fill="#3274d9" rx="2"/>
<text x="730" y="916" fill="#d8d9da" font-size="11" font-weight="500">Controller workqueue depth</text>
<text x="730" y="930" fill="#8e8e8e" font-size="9">timeseries · short</text>
<polyline points="732,1028 787,1014 841,1028 896,1014 951,1028 1005,1014 1060,1028" fill="none" stroke="#3274d9" stroke-width="1.5" opacity="0.8"/>
<rect x="1088" y="56" width="284" height="1080" fill="#181b1f" stroke="#2c3235" rx="4"/>
<text x="1100" y="78" fill="#d8d9da" font-size="12" font-weight="700">What to look for</text>
<circle cx="1106" cy="94" r="4" fill="#3274d9"/>
<text x="1118" y="98" fill="#8e8e8e" font-size="10">Is the API server inside its error</text>
<text x="1118" y="111" fill="#8e8e8e" font-size="10">budget (5xx ratio) right now?</text>
<circle cx="1106" cy="128" r="4" fill="#3274d9"/>
<text x="1118" y="132" fill="#8e8e8e" font-size="10">What is read vs write p99 latency, and</text>
<text x="1118" y="145" fill="#8e8e8e" font-size="10">which verb is slow?</text>
<circle cx="1106" cy="162" r="4" fill="#3274d9"/>
<text x="1118" y="166" fill="#8e8e8e" font-size="10">Are we saturating inflight capacity or</text>
<text x="1118" y="179" fill="#8e8e8e" font-size="10">being throttled by API Priority &amp;</text>
<text x="1118" y="192" fill="#8e8e8e" font-size="10">Fairness?</text>
<circle cx="1106" cy="209" r="4" fill="#3274d9"/>
<text x="1118" y="213" fill="#8e8e8e" font-size="10">Which resource/verb is generating the</text>
<text x="1118" y="226" fill="#8e8e8e" font-size="10">errors or the load?</text>
<circle cx="1106" cy="243" r="4" fill="#73bf69"/>
<text x="1118" y="247" fill="#8e8e8e" font-size="10">Green: within expected range</text>
<circle cx="1106" cy="264" r="4" fill="#f2cc0c"/>
<text x="1118" y="268" fill="#8e8e8e" font-size="10">Yellow: investigate — approaching a</text>
<text x="1118" y="281" fill="#8e8e8e" font-size="10">limit</text>
<circle cx="1106" cy="298" r="4" fill="#e02f44"/>
<text x="1118" y="302" fill="#8e8e8e" font-size="10">Red: act now — threshold breached</text>
</svg>
