<svg xmlns="http://www.w3.org/2000/svg" width="1404" height="1152" viewBox="0 0 1404 1152" font-family="Inter, Roboto, Arial, sans-serif">
<rect width="1404" height="1152" fill="#0b0c0e"/>
<text x="16" y="30" fill="#d8d9da" font-size="16" font-weight="600">Kubernetes / Pods</text>
<text x="16" y="48" fill="#8e8e8e" font-size="11">Schematic layout · datasource: prometheus · uid: kubernetes-pods</text>
<rect x="16" y="56" width="1056" height="26" fill="#22252b" rx="3"/>
<text x="26" y="75" fill="#d8d9da" font-size="12" font-weight="600">▾ Pod problems — read these first</text>
<rect x="18" y="88" width="260" height="234" fill="#181b1f" stroke="#2c3235" rx="3"/>
<rect x="18" y="88" width="260" height="3" fill="#3274d9" rx="2"/>
<text x="26" y="106" fill="#d8d9da" font-size="11" font-weight="500">Pods Pending</text>
<text x="26" y="120" fill="#8e8e8e" font-size="9">stat · short</text>
<text x="148" y="222" fill="#3274d9" font-size="20" font-weight="700" text-anchor="middle">●</text>
<rect x="282" y="88" width="260" height="234" fill="#181b1f" stroke="#2c3235" rx="3"/>
<rect x="282" y="88" width="260" height="3" fill="#3274d9" rx="2"/>
<text x="290" y="106" fill="#d8d9da" font-size="11" font-weight="500">Containers crash-looping</text>
<text x="290" y="120" fill="#8e8e8e" font-size="9">stat · short</text>
<text x="412" y="222" fill="#3274d9" font-size="20" font-weight="700" text-anchor="middle">●</text>
<rect x="546" y="88" width="260" height="234" fill="#181b1f" stroke="#2c3235" rx="3"/>
<rect x="546" y="88" width="260" height="3" fill="#3274d9" rx="2"/>
<text x="554" y="106" fill="#d8d9da" font-size="11" font-weight="500">Containers failing image pull</text>
<text x="554" y="120" fill="#8e8e8e" font-size="9">stat · short</text>
<text x="676" y="222" fill="#3274d9" font-size="20" font-weight="700" text-anchor="middle">●</text>
<rect x="810" y="88" width="260" height="234" fill="#181b1f" stroke="#2c3235" rx="3"/>
<rect x="810" y="88" width="260" height="3" fill="#3274d9" rx="2"/>
<text x="818" y="106" fill="#d8d9da" font-size="11" font-weight="500">Pods running but NotReady</text>
<text x="818" y="120" fill="#8e8e8e" font-size="9">stat · short</text>
<text x="940" y="222" fill="#3274d9" font-size="20" font-weight="700" text-anchor="middle">●</text>
<rect x="16" y="326" width="1056" height="26" fill="#22252b" rx="3"/>
<text x="26" y="345" fill="#d8d9da" font-size="12" font-weight="600">▾ Phases and waiting reasons</text>
<rect x="18" y="358" width="524" height="234" fill="#181b1f" stroke="#2c3235" rx="3"/>
<rect x="18" y="358" width="524" height="3" fill="#73bf69" rx="2"/>
<text x="26" y="376" fill="#d8d9da" font-size="11" font-weight="500">Pods by phase</text>
<text x="26" y="390" fill="#8e8e8e" font-size="9">piechart · short</text>
<rect x="28" y="476" width="252" height="5" fill="#73bf69" opacity="0.70" rx="2"/>
<rect x="28" y="485" width="328" height="5" fill="#73bf69" opacity="0.55" rx="2"/>
<rect x="28" y="494" width="403" height="5" fill="#73bf69" opacity="0.40" rx="2"/>
<rect x="546" y="358" width="524" height="234" fill="#181b1f" stroke="#2c3235" rx="3"/>
<rect x="546" y="358" width="524" height="3" fill="#f2cc0c" rx="2"/>
<text x="554" y="376" fill="#d8d9da" font-size="11" font-weight="500">Containers by waiting reason</text>
<text x="554" y="390" fill="#8e8e8e" font-size="9">bargauge · short</text>
<rect x="556" y="476" width="252" height="5" fill="#f2cc0c" opacity="0.70" rx="2"/>
<rect x="556" y="485" width="328" height="5" fill="#f2cc0c" opacity="0.55" rx="2"/>
<rect x="556" y="494" width="403" height="5" fill="#f2cc0c" opacity="0.40" rx="2"/>
<rect x="16" y="596" width="1056" height="26" fill="#22252b" rx="3"/>
<text x="26" y="615" fill="#d8d9da" font-size="12" font-weight="600">▾ Restart pressure</text>
<rect x="18" y="628" width="524" height="234" fill="#181b1f" stroke="#2c3235" rx="3"/>
<rect x="18" y="628" width="524" height="3" fill="#3274d9" rx="2"/>
<text x="26" y="646" fill="#d8d9da" font-size="11" font-weight="500">Restart rate by pod (per minute)</text>
<text x="26" y="660" fill="#8e8e8e" font-size="9">timeseries · short</text>
<polyline points="28,758 112,744 196,758 280,744 364,758 448,744 532,758" fill="none" stroke="#3274d9" stroke-width="1.5" opacity="0.8"/>
<rect x="546" y="628" width="524" height="234" fill="#181b1f" stroke="#2c3235" rx="3"/>
<rect x="546" y="628" width="524" height="3" fill="#3274d9" rx="2"/>
<text x="554" y="646" fill="#d8d9da" font-size="11" font-weight="500">Restarts (1h)</text>
<text x="554" y="660" fill="#8e8e8e" font-size="9">stat · short</text>
<text x="808" y="762" fill="#3274d9" font-size="20" font-weight="700" text-anchor="middle">●</text>
<rect x="16" y="866" width="1056" height="26" fill="#22252b" rx="3"/>
<text x="26" y="885" fill="#d8d9da" font-size="12" font-weight="600">▾ Not-ready detail</text>
<rect x="18" y="898" width="524" height="234" fill="#181b1f" stroke="#2c3235" rx="3"/>
<rect x="18" y="898" width="524" height="3" fill="#8e8e8e" rx="2"/>
<text x="26" y="916" fill="#d8d9da" font-size="11" font-weight="500">Pods not Ready</text>
<text x="26" y="930" fill="#8e8e8e" font-size="9">table · short</text>
<rect x="28" y="1016" width="252" height="5" fill="#8e8e8e" opacity="0.70" rx="2"/>
<rect x="28" y="1025" width="328" height="5" fill="#8e8e8e" opacity="0.55" rx="2"/>
<rect x="28" y="1034" width="403" height="5" fill="#8e8e8e" opacity="0.40" rx="2"/>
<rect x="546" y="898" width="524" height="234" fill="#181b1f" stroke="#2c3235" rx="3"/>
<rect x="546" y="898" width="524" height="3" fill="#8e8e8e" rx="2"/>
<text x="554" y="916" fill="#d8d9da" font-size="11" font-weight="500">Top restarting pods (1h)</text>
<text x="554" y="930" fill="#8e8e8e" font-size="9">table · short</text>
<rect x="556" y="1016" width="252" height="5" fill="#8e8e8e" opacity="0.70" rx="2"/>
<rect x="556" y="1025" width="328" height="5" fill="#8e8e8e" opacity="0.55" rx="2"/>
<rect x="556" y="1034" width="403" height="5" fill="#8e8e8e" opacity="0.40" rx="2"/>
<rect x="1088" y="56" width="284" height="1080" fill="#181b1f" stroke="#2c3235" rx="4"/>
<text x="1100" y="78" fill="#d8d9da" font-size="12" font-weight="700">What to look for</text>
<circle cx="1106" cy="94" r="4" fill="#3274d9"/>
<text x="1118" y="98" fill="#8e8e8e" font-size="10">How many pods are Pending or</text>
<text x="1118" y="111" fill="#8e8e8e" font-size="10">crash-looping in this namespace?</text>
<circle cx="1106" cy="128" r="4" fill="#3274d9"/>
<text x="1118" y="132" fill="#8e8e8e" font-size="10">Which container waiting reason is</text>
<text x="1118" y="145" fill="#8e8e8e" font-size="10">blocking startup — image pull, crash</text>
<text x="1118" y="158" fill="#8e8e8e" font-size="10">loop, config?</text>
<circle cx="1106" cy="175" r="4" fill="#3274d9"/>
<text x="1118" y="179" fill="#8e8e8e" font-size="10">Which pods are restarting the most, and</text>
<text x="1118" y="192" fill="#8e8e8e" font-size="10">how fast?</text>
<circle cx="1106" cy="209" r="4" fill="#3274d9"/>
<text x="1118" y="213" fill="#8e8e8e" font-size="10">Which pods are running but not Ready</text>
<text x="1118" y="226" fill="#8e8e8e" font-size="10">(failing their readiness probe)?</text>
<circle cx="1106" cy="243" r="4" fill="#73bf69"/>
<text x="1118" y="247" fill="#8e8e8e" font-size="10">Green: within expected range</text>
<circle cx="1106" cy="264" r="4" fill="#f2cc0c"/>
<text x="1118" y="268" fill="#8e8e8e" font-size="10">Yellow: investigate — approaching a</text>
<text x="1118" y="281" fill="#8e8e8e" font-size="10">limit</text>
<circle cx="1106" cy="298" r="4" fill="#e02f44"/>
<text x="1118" y="302" fill="#8e8e8e" font-size="10">Red: act now — threshold breached</text>
</svg>
