<svg xmlns="http://www.w3.org/2000/svg" width="1404" height="1152" viewBox="0 0 1404 1152" font-family="Inter, Roboto, Arial, sans-serif">
<rect width="1404" height="1152" fill="#0b0c0e"/>
<text x="16" y="30" fill="#d8d9da" font-size="16" font-weight="600">Redis / Keyspace &amp; Memory</text>
<text x="16" y="48" fill="#8e8e8e" font-size="11">Schematic layout · datasource: prometheus · uid: redis-keyspace-and-memory</text>
<rect x="16" y="56" width="1056" height="26" fill="#22252b" rx="3"/>
<text x="26" y="75" fill="#d8d9da" font-size="12" font-weight="600">▾ Memory pressure — read these first</text>
<rect x="18" y="88" width="260" height="234" fill="#181b1f" stroke="#2c3235" rx="3"/>
<rect x="18" y="88" width="260" height="3" fill="#73bf69" rx="2"/>
<text x="26" y="106" fill="#d8d9da" font-size="11" font-weight="500">Memory used vs maxmemory</text>
<text x="26" y="120" fill="#8e8e8e" font-size="9">gauge · percent</text>
<text x="148" y="222" fill="#73bf69" font-size="20" font-weight="700" text-anchor="middle">●</text>
<rect x="282" y="88" width="260" height="234" fill="#181b1f" stroke="#2c3235" rx="3"/>
<rect x="282" y="88" width="260" height="3" fill="#3274d9" rx="2"/>
<text x="290" y="106" fill="#d8d9da" font-size="11" font-weight="500">Eviction rate</text>
<text x="290" y="120" fill="#8e8e8e" font-size="9">stat · ops</text>
<text x="412" y="222" fill="#3274d9" font-size="20" font-weight="700" text-anchor="middle">●</text>
<rect x="546" y="88" width="260" height="234" fill="#181b1f" stroke="#2c3235" rx="3"/>
<rect x="546" y="88" width="260" height="3" fill="#3274d9" rx="2"/>
<text x="554" y="106" fill="#d8d9da" font-size="11" font-weight="500">Last RDB save age</text>
<text x="554" y="120" fill="#8e8e8e" font-size="9">stat · s</text>
<text x="676" y="222" fill="#3274d9" font-size="20" font-weight="700" text-anchor="middle">●</text>
<rect x="810" y="88" width="260" height="234" fill="#181b1f" stroke="#2c3235" rx="3"/>
<rect x="810" y="88" width="260" height="3" fill="#3274d9" rx="2"/>
<text x="818" y="106" fill="#d8d9da" font-size="11" font-weight="500">Total keys</text>
<text x="818" y="120" fill="#8e8e8e" font-size="9">stat · short</text>
<text x="940" y="222" fill="#3274d9" font-size="20" font-weight="700" text-anchor="middle">●</text>
<rect x="16" y="326" width="1056" height="26" fill="#22252b" rx="3"/>
<text x="26" y="345" fill="#d8d9da" font-size="12" font-weight="600">▾ Keyspace</text>
<rect x="18" y="358" width="348" height="234" fill="#181b1f" stroke="#2c3235" rx="3"/>
<rect x="18" y="358" width="348" height="3" fill="#f2cc0c" rx="2"/>
<text x="26" y="376" fill="#d8d9da" font-size="11" font-weight="500">Keys per database</text>
<text x="26" y="390" fill="#8e8e8e" font-size="9">bargauge · short</text>
<rect x="28" y="476" width="164" height="5" fill="#f2cc0c" opacity="0.70" rx="2"/>
<rect x="28" y="485" width="213" height="5" fill="#f2cc0c" opacity="0.55" rx="2"/>
<rect x="28" y="494" width="262" height="5" fill="#f2cc0c" opacity="0.40" rx="2"/>
<rect x="370" y="358" width="348" height="234" fill="#181b1f" stroke="#2c3235" rx="3"/>
<rect x="370" y="358" width="348" height="3" fill="#3274d9" rx="2"/>
<text x="378" y="376" fill="#d8d9da" font-size="11" font-weight="500">Keys with a TTL</text>
<text x="378" y="390" fill="#8e8e8e" font-size="9">timeseries · short</text>
<polyline points="380,488 435,474 489,488 544,474 599,488 653,474 708,488" fill="none" stroke="#3274d9" stroke-width="1.5" opacity="0.8"/>
<rect x="722" y="358" width="348" height="234" fill="#181b1f" stroke="#2c3235" rx="3"/>
<rect x="722" y="358" width="348" height="3" fill="#3274d9" rx="2"/>
<text x="730" y="376" fill="#d8d9da" font-size="11" font-weight="500">Total keys over time</text>
<text x="730" y="390" fill="#8e8e8e" font-size="9">timeseries · short</text>
<polyline points="732,488 787,474 841,488 896,474 951,488 1005,474 1060,488" fill="none" stroke="#3274d9" stroke-width="1.5" opacity="0.8"/>
<rect x="16" y="596" width="1056" height="26" fill="#22252b" rx="3"/>
<text x="26" y="615" fill="#d8d9da" font-size="12" font-weight="600">▾ Eviction and expiry</text>
<rect x="18" y="628" width="524" height="234" fill="#181b1f" stroke="#2c3235" rx="3"/>
<rect x="18" y="628" width="524" height="3" fill="#3274d9" rx="2"/>
<text x="26" y="646" fill="#d8d9da" font-size="11" font-weight="500">Evicted keys</text>
<text x="26" y="660" fill="#8e8e8e" font-size="9">timeseries · ops</text>
<polyline points="28,758 112,744 196,758 280,744 364,758 448,744 532,758" fill="none" stroke="#3274d9" stroke-width="1.5" opacity="0.8"/>
<rect x="546" y="628" width="524" height="234" fill="#181b1f" stroke="#2c3235" rx="3"/>
<rect x="546" y="628" width="524" height="3" fill="#3274d9" rx="2"/>
<text x="554" y="646" fill="#d8d9da" font-size="11" font-weight="500">Expired keys</text>
<text x="554" y="660" fill="#8e8e8e" font-size="9">timeseries · ops</text>
<polyline points="556,758 640,744 724,758 808,744 892,758 976,744 1060,758" fill="none" stroke="#3274d9" stroke-width="1.5" opacity="0.8"/>
<rect x="16" y="866" width="1056" height="26" fill="#22252b" rx="3"/>
<text x="26" y="885" fill="#d8d9da" font-size="12" font-weight="600">▾ Memory and persistence</text>
<rect x="18" y="898" width="524" height="234" fill="#181b1f" stroke="#2c3235" rx="3"/>
<rect x="18" y="898" width="524" height="3" fill="#3274d9" rx="2"/>
<text x="26" y="916" fill="#d8d9da" font-size="11" font-weight="500">Memory used vs maxmemory</text>
<text x="26" y="930" fill="#8e8e8e" font-size="9">timeseries · bytes</text>
<polyline points="28,1028 112,1014 196,1028 280,1014 364,1028 448,1014 532,1028" fill="none" stroke="#3274d9" stroke-width="1.5" opacity="0.8"/>
<rect x="546" y="898" width="524" height="234" fill="#181b1f" stroke="#2c3235" rx="3"/>
<rect x="546" y="898" width="524" height="3" fill="#3274d9" rx="2"/>
<text x="554" y="916" fill="#d8d9da" font-size="11" font-weight="500">Time since last RDB save</text>
<text x="554" y="930" fill="#8e8e8e" font-size="9">timeseries · s</text>
<polyline points="556,1028 640,1014 724,1028 808,1014 892,1028 976,1014 1060,1028" fill="none" stroke="#3274d9" stroke-width="1.5" opacity="0.8"/>
<rect x="1088" y="56" width="284" height="1080" fill="#181b1f" stroke="#2c3235" rx="4"/>
<text x="1100" y="78" fill="#d8d9da" font-size="12" font-weight="700">What to look for</text>
<circle cx="1106" cy="94" r="4" fill="#3274d9"/>
<text x="1118" y="98" fill="#8e8e8e" font-size="10">How close is memory used to maxmemory?</text>
<circle cx="1106" cy="115" r="4" fill="#3274d9"/>
<text x="1118" y="119" fill="#8e8e8e" font-size="10">Is Redis evicting keys under memory</text>
<text x="1118" y="132" fill="#8e8e8e" font-size="10">pressure?</text>
<circle cx="1106" cy="149" r="4" fill="#3274d9"/>
<text x="1118" y="153" fill="#8e8e8e" font-size="10">How old is the last successful RDB</text>
<text x="1118" y="166" fill="#8e8e8e" font-size="10">snapshot?</text>
<circle cx="1106" cy="183" r="4" fill="#3274d9"/>
<text x="1118" y="187" fill="#8e8e8e" font-size="10">How many keys are in each database, and</text>
<text x="1118" y="200" fill="#8e8e8e" font-size="10">how many have a TTL?</text>
<circle cx="1106" cy="217" r="4" fill="#73bf69"/>
<text x="1118" y="221" fill="#8e8e8e" font-size="10">Green: within expected range</text>
<circle cx="1106" cy="238" r="4" fill="#f2cc0c"/>
<text x="1118" y="242" fill="#8e8e8e" font-size="10">Yellow: investigate — approaching a</text>
<text x="1118" y="255" fill="#8e8e8e" font-size="10">limit</text>
<circle cx="1106" cy="272" r="4" fill="#e02f44"/>
<text x="1118" y="276" fill="#8e8e8e" font-size="10">Red: act now — threshold breached</text>
</svg>
