<svg xmlns="http://www.w3.org/2000/svg" width="1404" height="1152" viewBox="0 0 1404 1152" font-family="Inter, Roboto, Arial, sans-serif">
<rect width="1404" height="1152" fill="#0b0c0e"/>
<text x="16" y="30" fill="#d8d9da" font-size="16" font-weight="600">Docker / Engine &amp; Hosts</text>
<text x="16" y="48" fill="#8e8e8e" font-size="11">Schematic layout · datasource: prometheus · uid: docker-engine-hosts</text>
<rect x="16" y="56" width="1056" height="26" fill="#22252b" rx="3"/>
<text x="26" y="75" fill="#d8d9da" font-size="12" font-weight="600">▾ Container states — read these first</text>
<rect x="18" y="88" width="172" height="234" fill="#181b1f" stroke="#2c3235" rx="3"/>
<rect x="18" y="88" width="172" height="3" fill="#3274d9" rx="2"/>
<text x="26" y="106" fill="#d8d9da" font-size="11" font-weight="500">Running</text>
<text x="26" y="120" fill="#8e8e8e" font-size="9">stat · short</text>
<text x="104" y="222" fill="#3274d9" font-size="20" font-weight="700" text-anchor="middle">●</text>
<rect x="194" y="88" width="172" height="234" fill="#181b1f" stroke="#2c3235" rx="3"/>
<rect x="194" y="88" width="172" height="3" fill="#3274d9" rx="2"/>
<text x="202" y="106" fill="#d8d9da" font-size="11" font-weight="500">Paused</text>
<text x="202" y="120" fill="#8e8e8e" font-size="9">stat · short</text>
<text x="280" y="222" fill="#3274d9" font-size="20" font-weight="700" text-anchor="middle">●</text>
<rect x="370" y="88" width="172" height="234" fill="#181b1f" stroke="#2c3235" rx="3"/>
<rect x="370" y="88" width="172" height="3" fill="#3274d9" rx="2"/>
<text x="378" y="106" fill="#d8d9da" font-size="11" font-weight="500">Stopped</text>
<text x="378" y="120" fill="#8e8e8e" font-size="9">stat · short</text>
<text x="456" y="222" fill="#3274d9" font-size="20" font-weight="700" text-anchor="middle">●</text>
<rect x="546" y="88" width="172" height="234" fill="#181b1f" stroke="#2c3235" rx="3"/>
<rect x="546" y="88" width="172" height="3" fill="#73bf69" rx="2"/>
<text x="554" y="106" fill="#d8d9da" font-size="11" font-weight="500">Host CPU headroom</text>
<text x="554" y="120" fill="#8e8e8e" font-size="9">gauge · percent</text>
<text x="632" y="222" fill="#73bf69" font-size="20" font-weight="700" text-anchor="middle">●</text>
<rect x="722" y="88" width="172" height="234" fill="#181b1f" stroke="#2c3235" rx="3"/>
<rect x="722" y="88" width="172" height="3" fill="#73bf69" rx="2"/>
<text x="730" y="106" fill="#d8d9da" font-size="11" font-weight="500">Host memory headroom</text>
<text x="730" y="120" fill="#8e8e8e" font-size="9">gauge · percent</text>
<text x="808" y="222" fill="#73bf69" font-size="20" font-weight="700" text-anchor="middle">●</text>
<rect x="16" y="326" width="1056" height="26" fill="#22252b" rx="3"/>
<text x="26" y="345" fill="#d8d9da" font-size="12" font-weight="600">▾ Container states &amp; activity over time</text>
<rect x="18" y="358" width="348" height="234" fill="#181b1f" stroke="#2c3235" rx="3"/>
<rect x="18" y="358" width="348" height="3" fill="#3274d9" rx="2"/>
<text x="26" y="376" fill="#d8d9da" font-size="11" font-weight="500">Container states</text>
<text x="26" y="390" fill="#8e8e8e" font-size="9">timeseries · short</text>
<polyline points="28,488 83,474 137,488 192,474 247,488 301,474 356,488" fill="none" stroke="#3274d9" stroke-width="1.5" opacity="0.8"/>
<rect x="370" y="358" width="348" height="234" fill="#181b1f" stroke="#2c3235" rx="3"/>
<rect x="370" y="358" width="348" height="3" fill="#3274d9" rx="2"/>
<text x="378" y="376" fill="#d8d9da" font-size="11" font-weight="500">Image actions rate</text>
<text x="378" y="390" fill="#8e8e8e" font-size="9">timeseries · ops</text>
<polyline points="380,488 435,474 489,488 544,474 599,488 653,474 708,488" fill="none" stroke="#3274d9" stroke-width="1.5" opacity="0.8"/>
<rect x="722" y="358" width="348" height="234" fill="#181b1f" stroke="#2c3235" rx="3"/>
<rect x="722" y="358" width="348" height="3" fill="#3274d9" rx="2"/>
<text x="730" y="376" fill="#d8d9da" font-size="11" font-weight="500">Builds triggered</text>
<text x="730" y="390" fill="#8e8e8e" font-size="9">timeseries · ops</text>
<polyline points="732,488 787,474 841,488 896,474 951,488 1005,474 1060,488" fill="none" stroke="#3274d9" stroke-width="1.5" opacity="0.8"/>
<rect x="16" y="596" width="1056" height="26" fill="#22252b" rx="3"/>
<text x="26" y="615" fill="#d8d9da" font-size="12" font-weight="600">▾ Host headroom over time</text>
<rect x="18" y="628" width="524" height="234" fill="#181b1f" stroke="#2c3235" rx="3"/>
<rect x="18" y="628" width="524" height="3" fill="#3274d9" rx="2"/>
<text x="26" y="646" fill="#d8d9da" font-size="11" font-weight="500">Host CPU idle</text>
<text x="26" y="660" fill="#8e8e8e" font-size="9">timeseries · percent</text>
<polyline points="28,758 112,744 196,758 280,744 364,758 448,744 532,758" fill="none" stroke="#3274d9" stroke-width="1.5" opacity="0.8"/>
<rect x="546" y="628" width="524" height="234" fill="#181b1f" stroke="#2c3235" rx="3"/>
<rect x="546" y="628" width="524" height="3" fill="#3274d9" rx="2"/>
<text x="554" y="646" fill="#d8d9da" font-size="11" font-weight="500">Host memory available</text>
<text x="554" y="660" fill="#8e8e8e" font-size="9">timeseries · bytes</text>
<polyline points="556,758 640,744 724,758 808,744 892,758 976,744 1060,758" fill="none" stroke="#3274d9" stroke-width="1.5" opacity="0.8"/>
<rect x="16" y="866" width="1056" height="26" fill="#22252b" rx="3"/>
<text x="26" y="885" fill="#d8d9da" font-size="12" font-weight="600">▾ Engine info</text>
<rect x="18" y="898" width="1052" height="234" fill="#181b1f" stroke="#2c3235" rx="3"/>
<rect x="18" y="898" width="1052" height="3" fill="#8e8e8e" rx="2"/>
<text x="26" y="916" fill="#d8d9da" font-size="11" font-weight="500">Docker engine version</text>
<text x="26" y="930" fill="#8e8e8e" font-size="9">table · short</text>
<rect x="28" y="1016" width="516" height="5" fill="#8e8e8e" opacity="0.70" rx="2"/>
<rect x="28" y="1025" width="671" height="5" fill="#8e8e8e" opacity="0.55" rx="2"/>
<rect x="28" y="1034" width="826" height="5" fill="#8e8e8e" opacity="0.40" rx="2"/>
<rect x="1088" y="56" width="284" height="1080" fill="#181b1f" stroke="#2c3235" rx="4"/>
<text x="1100" y="78" fill="#d8d9da" font-size="12" font-weight="700">What to look for</text>
<circle cx="1106" cy="94" r="4" fill="#3274d9"/>
<text x="1118" y="98" fill="#8e8e8e" font-size="10">How many containers are running, paused</text>
<text x="1118" y="111" fill="#8e8e8e" font-size="10">or stopped on each engine?</text>
<circle cx="1106" cy="128" r="4" fill="#3274d9"/>
<text x="1118" y="132" fill="#8e8e8e" font-size="10">Does the host have CPU and memory</text>
<text x="1118" y="145" fill="#8e8e8e" font-size="10">headroom for more containers?</text>
<circle cx="1106" cy="162" r="4" fill="#3274d9"/>
<text x="1118" y="166" fill="#8e8e8e" font-size="10">Is there unusual image pull/build</text>
<text x="1118" y="179" fill="#8e8e8e" font-size="10">activity?</text>
<circle cx="1106" cy="196" r="4" fill="#3274d9"/>
<text x="1118" y="200" fill="#8e8e8e" font-size="10">Which engine version and configuration</text>
<text x="1118" y="213" fill="#8e8e8e" font-size="10">is each host running?</text>
<circle cx="1106" cy="230" r="4" fill="#73bf69"/>
<text x="1118" y="234" fill="#8e8e8e" font-size="10">Green: within expected range</text>
<circle cx="1106" cy="251" r="4" fill="#f2cc0c"/>
<text x="1118" y="255" fill="#8e8e8e" font-size="10">Yellow: investigate — approaching a</text>
<text x="1118" y="268" fill="#8e8e8e" font-size="10">limit</text>
<circle cx="1106" cy="285" r="4" fill="#e02f44"/>
<text x="1118" y="289" fill="#8e8e8e" font-size="10">Red: act now — threshold breached</text>
</svg>
