<svg xmlns="http://www.w3.org/2000/svg" width="1404" height="882" viewBox="0 0 1404 882" font-family="Inter, Roboto, Arial, sans-serif">
<rect width="1404" height="882" fill="#0b0c0e"/>
<text x="16" y="30" fill="#d8d9da" font-size="16" font-weight="600">Linux / Filesystem</text>
<text x="16" y="48" fill="#8e8e8e" font-size="11">Schematic layout · datasource: prometheus · uid: linux-filesystem</text>
<rect x="16" y="56" width="1056" height="26" fill="#22252b" rx="3"/>
<text x="26" y="75" fill="#d8d9da" font-size="12" font-weight="600">▾ Exhaustion risk — read these first</text>
<rect x="18" y="88" width="260" height="234" fill="#181b1f" stroke="#2c3235" rx="3"/>
<rect x="18" y="88" width="260" height="3" fill="#73bf69" rx="2"/>
<text x="26" y="106" fill="#d8d9da" font-size="11" font-weight="500">Fullest filesystem</text>
<text x="26" y="120" fill="#8e8e8e" font-size="9">gauge · percent</text>
<text x="148" y="222" fill="#73bf69" font-size="20" font-weight="700" text-anchor="middle">●</text>
<rect x="282" y="88" width="260" height="234" fill="#181b1f" stroke="#2c3235" rx="3"/>
<rect x="282" y="88" width="260" height="3" fill="#3274d9" rx="2"/>
<text x="290" y="106" fill="#d8d9da" font-size="11" font-weight="500">Soonest predicted full</text>
<text x="290" y="120" fill="#8e8e8e" font-size="9">stat · s</text>
<text x="412" y="222" fill="#3274d9" font-size="20" font-weight="700" text-anchor="middle">●</text>
<rect x="546" y="88" width="260" height="234" fill="#181b1f" stroke="#2c3235" rx="3"/>
<rect x="546" y="88" width="260" height="3" fill="#3274d9" rx="2"/>
<text x="554" y="106" fill="#d8d9da" font-size="11" font-weight="500">Read-only mounts</text>
<text x="554" y="120" fill="#8e8e8e" font-size="9">stat · short</text>
<text x="676" y="222" fill="#3274d9" font-size="20" font-weight="700" text-anchor="middle">●</text>
<rect x="810" y="88" width="260" height="234" fill="#181b1f" stroke="#2c3235" rx="3"/>
<rect x="810" y="88" width="260" height="3" fill="#3274d9" rx="2"/>
<text x="818" y="106" fill="#d8d9da" font-size="11" font-weight="500">Lowest inodes free</text>
<text x="818" y="120" fill="#8e8e8e" font-size="9">stat · percent</text>
<text x="940" y="222" fill="#3274d9" font-size="20" font-weight="700" text-anchor="middle">●</text>
<rect x="16" y="326" width="1056" height="26" fill="#22252b" rx="3"/>
<text x="26" y="345" fill="#d8d9da" font-size="12" font-weight="600">▾ Capacity by mount</text>
<rect x="18" y="358" width="524" height="234" fill="#181b1f" stroke="#2c3235" rx="3"/>
<rect x="18" y="358" width="524" height="3" fill="#f2cc0c" rx="2"/>
<text x="26" y="376" fill="#d8d9da" font-size="11" font-weight="500">Used % by mount</text>
<text x="26" y="390" fill="#8e8e8e" font-size="9">bargauge · percent</text>
<rect x="28" y="476" width="252" height="5" fill="#f2cc0c" opacity="0.70" rx="2"/>
<rect x="28" y="485" width="328" height="5" fill="#f2cc0c" opacity="0.55" rx="2"/>
<rect x="28" y="494" width="403" height="5" fill="#f2cc0c" opacity="0.40" rx="2"/>
<rect x="546" y="358" width="524" height="234" fill="#181b1f" stroke="#2c3235" rx="3"/>
<rect x="546" y="358" width="524" height="3" fill="#3274d9" rx="2"/>
<text x="554" y="376" fill="#d8d9da" font-size="11" font-weight="500">Bytes free by mount</text>
<text x="554" y="390" fill="#8e8e8e" font-size="9">timeseries · bytes</text>
<polyline points="556,488 640,474 724,488 808,474 892,488 976,474 1060,488" fill="none" stroke="#3274d9" stroke-width="1.5" opacity="0.8"/>
<rect x="16" y="596" width="1056" height="26" fill="#22252b" rx="3"/>
<text x="26" y="615" fill="#d8d9da" font-size="12" font-weight="600">▾ Inodes and prediction</text>
<rect x="18" y="628" width="524" height="234" fill="#181b1f" stroke="#2c3235" rx="3"/>
<rect x="18" y="628" width="524" height="3" fill="#3274d9" rx="2"/>
<text x="26" y="646" fill="#d8d9da" font-size="11" font-weight="500">Inodes free % by mount</text>
<text x="26" y="660" fill="#8e8e8e" font-size="9">timeseries · percent</text>
<polyline points="28,758 112,744 196,758 280,744 364,758 448,744 532,758" fill="none" stroke="#3274d9" stroke-width="1.5" opacity="0.8"/>
<rect x="546" y="628" width="524" height="234" fill="#181b1f" stroke="#2c3235" rx="3"/>
<rect x="546" y="628" width="524" height="3" fill="#8e8e8e" rx="2"/>
<text x="554" y="646" fill="#d8d9da" font-size="11" font-weight="500">Predicted time to full (hours)</text>
<text x="554" y="660" fill="#8e8e8e" font-size="9">table · short</text>
<rect x="556" y="746" width="252" height="5" fill="#8e8e8e" opacity="0.70" rx="2"/>
<rect x="556" y="755" width="328" height="5" fill="#8e8e8e" opacity="0.55" rx="2"/>
<rect x="556" y="764" width="403" height="5" fill="#8e8e8e" opacity="0.40" rx="2"/>
<rect x="1088" y="56" width="284" height="810" fill="#181b1f" stroke="#2c3235" rx="4"/>
<text x="1100" y="78" fill="#d8d9da" font-size="12" font-weight="700">What to look for</text>
<circle cx="1106" cy="94" r="4" fill="#3274d9"/>
<text x="1118" y="98" fill="#8e8e8e" font-size="10">Which filesystem is fullest right now?</text>
<circle cx="1106" cy="115" r="4" fill="#3274d9"/>
<text x="1118" y="119" fill="#8e8e8e" font-size="10">Which mount is predicted to run out of</text>
<text x="1118" y="132" fill="#8e8e8e" font-size="10">space first, and how soon?</text>
<circle cx="1106" cy="149" r="4" fill="#3274d9"/>
<text x="1118" y="153" fill="#8e8e8e" font-size="10">Are we about to exhaust inodes even</text>
<text x="1118" y="166" fill="#8e8e8e" font-size="10">though bytes look fine?</text>
<circle cx="1106" cy="183" r="4" fill="#3274d9"/>
<text x="1118" y="187" fill="#8e8e8e" font-size="10">Did any filesystem flip to read-only (a</text>
<text x="1118" y="200" fill="#8e8e8e" font-size="10">sign of underlying disk errors)?</text>
<circle cx="1106" cy="217" r="4" fill="#73bf69"/>
<text x="1118" y="221" fill="#8e8e8e" font-size="10">Green: within expected range</text>
<circle cx="1106" cy="238" r="4" fill="#f2cc0c"/>
<text x="1118" y="242" fill="#8e8e8e" font-size="10">Yellow: investigate — approaching a</text>
<text x="1118" y="255" fill="#8e8e8e" font-size="10">limit</text>
<circle cx="1106" cy="272" r="4" fill="#e02f44"/>
<text x="1118" y="276" fill="#8e8e8e" font-size="10">Red: act now — threshold breached</text>
</svg>
