<svg xmlns="http://www.w3.org/2000/svg" width="1404" height="1182" viewBox="0 0 1404 1182" font-family="Inter, Roboto, Arial, sans-serif">
<rect width="1404" height="1182" fill="#0b0c0e"/>
<text x="16" y="30" fill="#d8d9da" font-size="16" font-weight="600">Linux / Hardware Sensors</text>
<text x="16" y="48" fill="#8e8e8e" font-size="11">Schematic layout · datasource: prometheus · uid: linux-hardware-sensors</text>
<rect x="16" y="56" width="1056" height="26" fill="#22252b" rx="3"/>
<text x="26" y="75" fill="#d8d9da" font-size="12" font-weight="600">▾ Thermal — read these first</text>
<rect x="18" y="88" width="260" height="234" fill="#181b1f" stroke="#2c3235" rx="3"/>
<rect x="18" y="88" width="260" height="3" fill="#3274d9" rx="2"/>
<text x="26" y="106" fill="#d8d9da" font-size="11" font-weight="500">Hottest sensor</text>
<text x="26" y="120" fill="#8e8e8e" font-size="9">stat · celsius</text>
<text x="148" y="222" fill="#3274d9" font-size="20" font-weight="700" text-anchor="middle">●</text>
<rect x="282" y="88" width="260" height="234" fill="#181b1f" stroke="#2c3235" rx="3"/>
<rect x="282" y="88" width="260" height="3" fill="#3274d9" rx="2"/>
<text x="290" y="106" fill="#d8d9da" font-size="11" font-weight="500">Sensors over 85°C</text>
<text x="290" y="120" fill="#8e8e8e" font-size="9">stat · short</text>
<text x="412" y="222" fill="#3274d9" font-size="20" font-weight="700" text-anchor="middle">●</text>
<rect x="546" y="88" width="260" height="234" fill="#181b1f" stroke="#2c3235" rx="3"/>
<rect x="546" y="88" width="260" height="3" fill="#73bf69" rx="2"/>
<text x="554" y="106" fill="#d8d9da" font-size="11" font-weight="500">Fleet mean temperature</text>
<text x="554" y="120" fill="#8e8e8e" font-size="9">gauge · celsius</text>
<text x="676" y="222" fill="#73bf69" font-size="20" font-weight="700" text-anchor="middle">●</text>
<rect x="810" y="88" width="260" height="234" fill="#181b1f" stroke="#2c3235" rx="3"/>
<rect x="810" y="88" width="260" height="3" fill="#3274d9" rx="2"/>
<text x="818" y="106" fill="#d8d9da" font-size="11" font-weight="500">Lowest CPU frequency</text>
<text x="818" y="120" fill="#8e8e8e" font-size="9">stat · hertz</text>
<text x="940" y="222" fill="#3274d9" font-size="20" font-weight="700" text-anchor="middle">●</text>
<rect x="16" y="326" width="1056" height="26" fill="#22252b" rx="3"/>
<text x="26" y="345" fill="#d8d9da" font-size="12" font-weight="600">▾ Temperatures</text>
<rect x="18" y="358" width="524" height="234" fill="#181b1f" stroke="#2c3235" rx="3"/>
<rect x="18" y="358" width="524" height="3" fill="#3274d9" rx="2"/>
<text x="26" y="376" fill="#d8d9da" font-size="11" font-weight="500">Temperature by sensor</text>
<text x="26" y="390" fill="#8e8e8e" font-size="9">timeseries · celsius</text>
<polyline points="28,488 112,474 196,488 280,474 364,488 448,474 532,488" fill="none" stroke="#3274d9" stroke-width="1.5" opacity="0.8"/>
<rect x="546" y="358" width="524" height="234" fill="#181b1f" stroke="#2c3235" rx="3"/>
<rect x="546" y="358" width="524" height="3" fill="#f2cc0c" rx="2"/>
<text x="554" y="376" fill="#d8d9da" font-size="11" font-weight="500">Top sensors by temperature</text>
<text x="554" y="390" fill="#8e8e8e" font-size="9">bargauge · celsius</text>
<rect x="556" y="476" width="252" height="5" fill="#f2cc0c" opacity="0.70" rx="2"/>
<rect x="556" y="485" width="328" height="5" fill="#f2cc0c" opacity="0.55" rx="2"/>
<rect x="556" y="494" width="403" height="5" fill="#f2cc0c" opacity="0.40" rx="2"/>
<rect x="16" y="596" width="1056" height="26" fill="#22252b" rx="3"/>
<text x="26" y="615" fill="#d8d9da" font-size="12" font-weight="600">▾ Temperature distribution</text>
<rect x="18" y="628" width="1052" height="264" fill="#181b1f" stroke="#2c3235" rx="3"/>
<rect x="18" y="628" width="1052" height="3" fill="#e02f44" rx="2"/>
<text x="26" y="646" fill="#d8d9da" font-size="11" font-weight="500">Sensor temperature distribution</text>
<text x="26" y="660" fill="#8e8e8e" font-size="9">heatmap</text>
<rect x="28" y="761" width="516" height="5" fill="#e02f44" opacity="0.70" rx="2"/>
<rect x="28" y="770" width="671" height="5" fill="#e02f44" opacity="0.55" rx="2"/>
<rect x="28" y="779" width="826" height="5" fill="#e02f44" opacity="0.40" rx="2"/>
<rect x="16" y="896" width="1056" height="26" fill="#22252b" rx="3"/>
<text x="26" y="915" fill="#d8d9da" font-size="12" font-weight="600">▾ CPU frequency</text>
<rect x="18" y="928" width="524" height="234" fill="#181b1f" stroke="#2c3235" rx="3"/>
<rect x="18" y="928" width="524" height="3" fill="#3274d9" rx="2"/>
<text x="26" y="946" fill="#d8d9da" font-size="11" font-weight="500">CPU scaling frequency per host</text>
<text x="26" y="960" fill="#8e8e8e" font-size="9">timeseries · hertz</text>
<polyline points="28,1058 112,1044 196,1058 280,1044 364,1058 448,1044 532,1058" fill="none" stroke="#3274d9" stroke-width="1.5" opacity="0.8"/>
<rect x="546" y="928" width="524" height="234" fill="#181b1f" stroke="#2c3235" rx="3"/>
<rect x="546" y="928" width="524" height="3" fill="#3274d9" rx="2"/>
<text x="554" y="946" fill="#d8d9da" font-size="11" font-weight="500">Hottest temperature per host</text>
<text x="554" y="960" fill="#8e8e8e" font-size="9">timeseries · celsius</text>
<polyline points="556,1058 640,1044 724,1058 808,1044 892,1058 976,1044 1060,1058" fill="none" stroke="#3274d9" stroke-width="1.5" opacity="0.8"/>
<rect x="1088" y="56" width="284" height="1110" fill="#181b1f" stroke="#2c3235" rx="4"/>
<text x="1100" y="78" fill="#d8d9da" font-size="12" font-weight="700">What to look for</text>
<circle cx="1106" cy="94" r="4" fill="#3274d9"/>
<text x="1118" y="98" fill="#8e8e8e" font-size="10">What is the hottest sensor across the</text>
<text x="1118" y="111" fill="#8e8e8e" font-size="10">fleet right now?</text>
<circle cx="1106" cy="128" r="4" fill="#3274d9"/>
<text x="1118" y="132" fill="#8e8e8e" font-size="10">How many sensors are above their safe</text>
<text x="1118" y="145" fill="#8e8e8e" font-size="10">threshold?</text>
<circle cx="1106" cy="162" r="4" fill="#3274d9"/>
<text x="1118" y="166" fill="#8e8e8e" font-size="10">Is a CPU being thermally throttled</text>
<text x="1118" y="179" fill="#8e8e8e" font-size="10">(frequency dropping while busy)?</text>
<circle cx="1106" cy="196" r="4" fill="#3274d9"/>
<text x="1118" y="200" fill="#8e8e8e" font-size="10">Which host or component is trending</text>
<text x="1118" y="213" fill="#8e8e8e" font-size="10">hotter over time?</text>
<circle cx="1106" cy="230" r="4" fill="#73bf69"/>
<text x="1118" y="234" fill="#8e8e8e" font-size="10">Green: within expected range</text>
<circle cx="1106" cy="251" r="4" fill="#f2cc0c"/>
<text x="1118" y="255" fill="#8e8e8e" font-size="10">Yellow: investigate — approaching a</text>
<text x="1118" y="268" fill="#8e8e8e" font-size="10">limit</text>
<circle cx="1106" cy="285" r="4" fill="#e02f44"/>
<text x="1118" y="289" fill="#8e8e8e" font-size="10">Red: act now — threshold breached</text>
</svg>
