<svg xmlns="http://www.w3.org/2000/svg" width="1404" height="942" viewBox="0 0 1404 942" font-family="Inter, Roboto, Arial, sans-serif">
<rect width="1404" height="942" fill="#0b0c0e"/>
<text x="16" y="30" fill="#d8d9da" font-size="16" font-weight="600">Linux / systemd</text>
<text x="16" y="48" fill="#8e8e8e" font-size="11">Schematic layout · datasource: prometheus · uid: linux-systemd</text>
<rect x="16" y="56" width="1056" height="26" fill="#22252b" rx="3"/>
<text x="26" y="75" fill="#d8d9da" font-size="12" font-weight="600">▾ Service health — read these first</text>
<rect x="18" y="88" width="260" height="234" fill="#181b1f" stroke="#2c3235" rx="3"/>
<rect x="18" y="88" width="260" height="3" fill="#3274d9" rx="2"/>
<text x="26" y="106" fill="#d8d9da" font-size="11" font-weight="500">Failed units</text>
<text x="26" y="120" fill="#8e8e8e" font-size="9">stat · short</text>
<text x="148" y="222" fill="#3274d9" font-size="20" font-weight="700" text-anchor="middle">●</text>
<rect x="282" y="88" width="260" height="234" fill="#181b1f" stroke="#2c3235" rx="3"/>
<rect x="282" y="88" width="260" height="3" fill="#3274d9" rx="2"/>
<text x="290" y="106" fill="#d8d9da" font-size="11" font-weight="500">Hosts with failures</text>
<text x="290" y="120" fill="#8e8e8e" font-size="9">stat · short</text>
<text x="412" y="222" fill="#3274d9" font-size="20" font-weight="700" text-anchor="middle">●</text>
<rect x="546" y="88" width="260" height="234" fill="#181b1f" stroke="#2c3235" rx="3"/>
<rect x="546" y="88" width="260" height="3" fill="#3274d9" rx="2"/>
<text x="554" y="106" fill="#d8d9da" font-size="11" font-weight="500">Active units</text>
<text x="554" y="120" fill="#8e8e8e" font-size="9">stat · short</text>
<text x="676" y="222" fill="#3274d9" font-size="20" font-weight="700" text-anchor="middle">●</text>
<rect x="810" y="88" width="260" height="234" fill="#181b1f" stroke="#2c3235" rx="3"/>
<rect x="810" y="88" width="260" height="3" fill="#3274d9" rx="2"/>
<text x="818" y="106" fill="#d8d9da" font-size="11" font-weight="500">Inactive units</text>
<text x="818" y="120" fill="#8e8e8e" font-size="9">stat · short</text>
<text x="940" y="222" fill="#3274d9" font-size="20" font-weight="700" text-anchor="middle">●</text>
<rect x="16" y="326" width="1056" height="26" fill="#22252b" rx="3"/>
<text x="26" y="345" fill="#d8d9da" font-size="12" font-weight="600">▾ Which units failed</text>
<rect x="18" y="358" width="1052" height="294" fill="#181b1f" stroke="#2c3235" rx="3"/>
<rect x="18" y="358" width="1052" height="3" fill="#8e8e8e" rx="2"/>
<text x="26" y="376" fill="#d8d9da" font-size="11" font-weight="500">Failed units</text>
<text x="26" y="390" fill="#8e8e8e" font-size="9">table · short</text>
<rect x="28" y="506" width="516" height="5" fill="#8e8e8e" opacity="0.70" rx="2"/>
<rect x="28" y="515" width="671" height="5" fill="#8e8e8e" opacity="0.55" rx="2"/>
<rect x="28" y="524" width="826" height="5" fill="#8e8e8e" opacity="0.40" rx="2"/>
<rect x="16" y="656" width="1056" height="26" fill="#22252b" rx="3"/>
<text x="26" y="675" fill="#d8d9da" font-size="12" font-weight="600">▾ Trend</text>
<rect x="18" y="688" width="524" height="234" fill="#181b1f" stroke="#2c3235" rx="3"/>
<rect x="18" y="688" width="524" height="3" fill="#3274d9" rx="2"/>
<text x="26" y="706" fill="#d8d9da" font-size="11" font-weight="500">Failed units over time (per host)</text>
<text x="26" y="720" fill="#8e8e8e" font-size="9">timeseries · short</text>
<polyline points="28,818 112,804 196,818 280,804 364,818 448,804 532,818" fill="none" stroke="#3274d9" stroke-width="1.5" opacity="0.8"/>
<rect x="546" y="688" width="524" height="234" fill="#181b1f" stroke="#2c3235" rx="3"/>
<rect x="546" y="688" width="524" height="3" fill="#3274d9" rx="2"/>
<text x="554" y="706" fill="#d8d9da" font-size="11" font-weight="500">Active vs inactive vs failed (fleet)</text>
<text x="554" y="720" fill="#8e8e8e" font-size="9">timeseries · short</text>
<polyline points="556,818 640,804 724,818 808,804 892,818 976,804 1060,818" fill="none" stroke="#3274d9" stroke-width="1.5" opacity="0.8"/>
<rect x="1088" y="56" width="284" height="870" fill="#181b1f" stroke="#2c3235" rx="4"/>
<text x="1100" y="78" fill="#d8d9da" font-size="12" font-weight="700">What to look for</text>
<circle cx="1106" cy="94" r="4" fill="#3274d9"/>
<text x="1118" y="98" fill="#8e8e8e" font-size="10">Are any systemd units in the failed</text>
<text x="1118" y="111" fill="#8e8e8e" font-size="10">state right now, and on which hosts?</text>
<circle cx="1106" cy="128" r="4" fill="#3274d9"/>
<text x="1118" y="132" fill="#8e8e8e" font-size="10">Which specific units failed (the table</text>
<text x="1118" y="145" fill="#8e8e8e" font-size="10">you would otherwise get from systemctl)?</text>
<circle cx="1106" cy="162" r="4" fill="#3274d9"/>
<text x="1118" y="166" fill="#8e8e8e" font-size="10">Is the failed-unit count trending up</text>
<text x="1118" y="179" fill="#8e8e8e" font-size="10">across the fleet?</text>
<circle cx="1106" cy="196" r="4" fill="#3274d9"/>
<text x="1118" y="200" fill="#8e8e8e" font-size="10">How many units are active vs inactive</text>
<text x="1118" y="213" fill="#8e8e8e" font-size="10">overall?</text>
<circle cx="1106" cy="230" r="4" fill="#73bf69"/>
<text x="1118" y="234" fill="#8e8e8e" font-size="10">Green: within expected range</text>
<circle cx="1106" cy="251" r="4" fill="#f2cc0c"/>
<text x="1118" y="255" fill="#8e8e8e" font-size="10">Yellow: investigate — approaching a</text>
<text x="1118" y="268" fill="#8e8e8e" font-size="10">limit</text>
<circle cx="1106" cy="285" r="4" fill="#e02f44"/>
<text x="1118" y="289" fill="#8e8e8e" font-size="10">Red: act now — threshold breached</text>
</svg>
