<svg xmlns="http://www.w3.org/2000/svg" width="1404" height="1212" viewBox="0 0 1404 1212" font-family="Inter, Roboto, Arial, sans-serif">
<rect width="1404" height="1212" fill="#0b0c0e"/>
<text x="16" y="30" fill="#d8d9da" font-size="16" font-weight="600">Linux / Volume Capacity</text>
<text x="16" y="48" fill="#8e8e8e" font-size="11">Schematic layout · datasource: prometheus · uid: linux-volume-capacity</text>
<rect x="16" y="56" width="1056" height="26" fill="#22252b" rx="3"/>
<text x="26" y="75" fill="#d8d9da" font-size="12" font-weight="600">▾ Runway — read these first</text>
<rect x="18" y="88" width="260" height="234" fill="#181b1f" stroke="#2c3235" rx="3"/>
<rect x="18" y="88" width="260" height="3" fill="#3274d9" rx="2"/>
<text x="26" y="106" fill="#d8d9da" font-size="11" font-weight="500">Volumes under 10% free</text>
<text x="26" y="120" fill="#8e8e8e" font-size="9">stat · short</text>
<text x="148" y="222" fill="#3274d9" font-size="20" font-weight="700" text-anchor="middle">●</text>
<rect x="282" y="88" width="260" height="234" fill="#181b1f" stroke="#2c3235" rx="3"/>
<rect x="282" y="88" width="260" height="3" fill="#3274d9" rx="2"/>
<text x="290" y="106" fill="#d8d9da" font-size="11" font-weight="500">Soonest to fill (days)</text>
<text x="290" y="120" fill="#8e8e8e" font-size="9">stat · short</text>
<text x="412" y="222" fill="#3274d9" font-size="20" font-weight="700" text-anchor="middle">●</text>
<rect x="546" y="88" width="260" height="234" fill="#181b1f" stroke="#2c3235" rx="3"/>
<rect x="546" y="88" width="260" height="3" fill="#3274d9" rx="2"/>
<text x="554" y="106" fill="#d8d9da" font-size="11" font-weight="500">Total provisioned</text>
<text x="554" y="120" fill="#8e8e8e" font-size="9">stat · bytes</text>
<text x="676" y="222" fill="#3274d9" font-size="20" font-weight="700" text-anchor="middle">●</text>
<rect x="810" y="88" width="260" height="234" fill="#181b1f" stroke="#2c3235" rx="3"/>
<rect x="810" y="88" width="260" height="3" fill="#3274d9" rx="2"/>
<text x="818" y="106" fill="#d8d9da" font-size="11" font-weight="500">Total free</text>
<text x="818" y="120" fill="#8e8e8e" font-size="9">stat · bytes</text>
<text x="940" y="222" fill="#3274d9" font-size="20" font-weight="700" text-anchor="middle">●</text>
<rect x="16" y="326" width="1056" height="26" fill="#22252b" rx="3"/>
<text x="26" y="345" fill="#d8d9da" font-size="12" font-weight="600">▾ Days to full</text>
<rect x="18" y="358" width="1052" height="294" fill="#181b1f" stroke="#2c3235" rx="3"/>
<rect x="18" y="358" width="1052" height="3" fill="#8e8e8e" rx="2"/>
<text x="26" y="376" fill="#d8d9da" font-size="11" font-weight="500">Days to full by mount</text>
<text x="26" y="390" fill="#8e8e8e" font-size="9">table · short</text>
<rect x="28" y="506" width="516" height="5" fill="#8e8e8e" opacity="0.70" rx="2"/>
<rect x="28" y="515" width="671" height="5" fill="#8e8e8e" opacity="0.55" rx="2"/>
<rect x="28" y="524" width="826" height="5" fill="#8e8e8e" opacity="0.40" rx="2"/>
<rect x="16" y="656" width="1056" height="26" fill="#22252b" rx="3"/>
<text x="26" y="675" fill="#d8d9da" font-size="12" font-weight="600">▾ Growth and size</text>
<rect x="18" y="688" width="524" height="234" fill="#181b1f" stroke="#2c3235" rx="3"/>
<rect x="18" y="688" width="524" height="3" fill="#f2cc0c" rx="2"/>
<text x="26" y="706" fill="#d8d9da" font-size="11" font-weight="500">Growth rate by mount (bytes/day)</text>
<text x="26" y="720" fill="#8e8e8e" font-size="9">bargauge · bytes</text>
<rect x="28" y="806" width="252" height="5" fill="#f2cc0c" opacity="0.70" rx="2"/>
<rect x="28" y="815" width="328" height="5" fill="#f2cc0c" opacity="0.55" rx="2"/>
<rect x="28" y="824" width="403" height="5" fill="#f2cc0c" opacity="0.40" rx="2"/>
<rect x="546" y="688" width="524" height="234" fill="#181b1f" stroke="#2c3235" rx="3"/>
<rect x="546" y="688" width="524" height="3" fill="#f2cc0c" rx="2"/>
<text x="554" y="706" fill="#d8d9da" font-size="11" font-weight="500">Largest volumes (provisioned)</text>
<text x="554" y="720" fill="#8e8e8e" font-size="9">bargauge · bytes</text>
<rect x="556" y="806" width="252" height="5" fill="#f2cc0c" opacity="0.70" rx="2"/>
<rect x="556" y="815" width="328" height="5" fill="#f2cc0c" opacity="0.55" rx="2"/>
<rect x="556" y="824" width="403" height="5" fill="#f2cc0c" opacity="0.40" rx="2"/>
<rect x="16" y="926" width="1056" height="26" fill="#22252b" rx="3"/>
<text x="26" y="945" fill="#d8d9da" font-size="12" font-weight="600">▾ Free-space trend</text>
<rect x="18" y="958" width="524" height="234" fill="#181b1f" stroke="#2c3235" rx="3"/>
<rect x="18" y="958" width="524" height="3" fill="#3274d9" rx="2"/>
<text x="26" y="976" fill="#d8d9da" font-size="11" font-weight="500">Free space by mount</text>
<text x="26" y="990" fill="#8e8e8e" font-size="9">timeseries · bytes</text>
<polyline points="28,1088 112,1074 196,1088 280,1074 364,1088 448,1074 532,1088" fill="none" stroke="#3274d9" stroke-width="1.5" opacity="0.8"/>
<rect x="546" y="958" width="524" height="234" fill="#181b1f" stroke="#2c3235" rx="3"/>
<rect x="546" y="958" width="524" height="3" fill="#3274d9" rx="2"/>
<text x="554" y="976" fill="#d8d9da" font-size="11" font-weight="500">Used % by mount</text>
<text x="554" y="990" fill="#8e8e8e" font-size="9">timeseries · percent</text>
<polyline points="556,1088 640,1074 724,1088 808,1074 892,1088 976,1074 1060,1088" fill="none" stroke="#3274d9" stroke-width="1.5" opacity="0.8"/>
<rect x="1088" y="56" width="284" height="1140" fill="#181b1f" stroke="#2c3235" rx="4"/>
<text x="1100" y="78" fill="#d8d9da" font-size="12" font-weight="700">What to look for</text>
<circle cx="1106" cy="94" r="4" fill="#3274d9"/>
<text x="1118" y="98" fill="#8e8e8e" font-size="10">How many volumes have less than 10% free</text>
<text x="1118" y="111" fill="#8e8e8e" font-size="10">right now?</text>
<circle cx="1106" cy="128" r="4" fill="#3274d9"/>
<text x="1118" y="132" fill="#8e8e8e" font-size="10">Which mount will fill first, and roughly</text>
<text x="1118" y="145" fill="#8e8e8e" font-size="10">how many days away is it?</text>
<circle cx="1106" cy="162" r="4" fill="#3274d9"/>
<text x="1118" y="166" fill="#8e8e8e" font-size="10">How fast is each volume growing</text>
<text x="1118" y="179" fill="#8e8e8e" font-size="10">(bytes/day)?</text>
<circle cx="1106" cy="196" r="4" fill="#3274d9"/>
<text x="1118" y="200" fill="#8e8e8e" font-size="10">Which mounts are the largest consumers</text>
<text x="1118" y="213" fill="#8e8e8e" font-size="10">of provisioned storage?</text>
<circle cx="1106" cy="230" r="4" fill="#73bf69"/>
<text x="1118" y="234" fill="#8e8e8e" font-size="10">Green: within expected range</text>
<circle cx="1106" cy="251" r="4" fill="#f2cc0c"/>
<text x="1118" y="255" fill="#8e8e8e" font-size="10">Yellow: investigate — approaching a</text>
<text x="1118" y="268" fill="#8e8e8e" font-size="10">limit</text>
<circle cx="1106" cy="285" r="4" fill="#e02f44"/>
<text x="1118" y="289" fill="#8e8e8e" font-size="10">Red: act now — threshold breached</text>
</svg>
