<svg xmlns="http://www.w3.org/2000/svg" width="1404" height="1152" viewBox="0 0 1404 1152" font-family="Inter, Roboto, Arial, sans-serif">
<rect width="1404" height="1152" fill="#0b0c0e"/>
<text x="16" y="30" fill="#d8d9da" font-size="16" font-weight="600">Node Exporter / Host USE Method</text>
<text x="16" y="48" fill="#8e8e8e" font-size="11">Schematic layout · datasource: prometheus · uid: node-exporter-host-use-method</text>
<rect x="16" y="56" width="1056" height="26" fill="#22252b" rx="3"/>
<text x="26" y="75" fill="#d8d9da" font-size="12" font-weight="600">▾ USE at a glance</text>
<rect x="18" y="88" width="260" height="234" fill="#181b1f" stroke="#2c3235" rx="3"/>
<rect x="18" y="88" width="260" height="3" fill="#73bf69" rx="2"/>
<text x="26" y="106" fill="#d8d9da" font-size="11" font-weight="500">CPU utilisation</text>
<text x="26" y="120" fill="#8e8e8e" font-size="9">gauge · percent</text>
<text x="148" y="222" fill="#73bf69" font-size="20" font-weight="700" text-anchor="middle">●</text>
<rect x="282" y="88" width="260" height="234" fill="#181b1f" stroke="#2c3235" rx="3"/>
<rect x="282" y="88" width="260" height="3" fill="#73bf69" rx="2"/>
<text x="290" y="106" fill="#d8d9da" font-size="11" font-weight="500">Memory utilisation</text>
<text x="290" y="120" fill="#8e8e8e" font-size="9">gauge · percent</text>
<text x="412" y="222" fill="#73bf69" font-size="20" font-weight="700" text-anchor="middle">●</text>
<rect x="546" y="88" width="260" height="234" fill="#181b1f" stroke="#2c3235" rx="3"/>
<rect x="546" y="88" width="260" height="3" fill="#73bf69" rx="2"/>
<text x="554" y="106" fill="#d8d9da" font-size="11" font-weight="500">Disk utilisation (worst mount)</text>
<text x="554" y="120" fill="#8e8e8e" font-size="9">gauge · percent</text>
<text x="676" y="222" fill="#73bf69" font-size="20" font-weight="700" text-anchor="middle">●</text>
<rect x="810" y="88" width="260" height="234" fill="#181b1f" stroke="#2c3235" rx="3"/>
<rect x="810" y="88" width="260" height="3" fill="#3274d9" rx="2"/>
<text x="818" y="106" fill="#d8d9da" font-size="11" font-weight="500">Load saturation (load1 / cores)</text>
<text x="818" y="120" fill="#8e8e8e" font-size="9">stat · short</text>
<text x="940" y="222" fill="#3274d9" font-size="20" font-weight="700" text-anchor="middle">●</text>
<rect x="16" y="326" width="1056" height="26" fill="#22252b" rx="3"/>
<text x="26" y="345" fill="#d8d9da" font-size="12" font-weight="600">▾ Utilisation</text>
<rect x="18" y="358" width="260" height="234" fill="#181b1f" stroke="#2c3235" rx="3"/>
<rect x="18" y="358" width="260" height="3" fill="#3274d9" rx="2"/>
<text x="26" y="376" fill="#d8d9da" font-size="11" font-weight="500">CPU by mode</text>
<text x="26" y="390" fill="#8e8e8e" font-size="9">timeseries · percent</text>
<polyline points="28,488 68,474 108,488 148,474 188,488 228,474 268,488" fill="none" stroke="#3274d9" stroke-width="1.5" opacity="0.8"/>
<rect x="282" y="358" width="260" height="234" fill="#181b1f" stroke="#2c3235" rx="3"/>
<rect x="282" y="358" width="260" height="3" fill="#3274d9" rx="2"/>
<text x="290" y="376" fill="#d8d9da" font-size="11" font-weight="500">Memory used vs total</text>
<text x="290" y="390" fill="#8e8e8e" font-size="9">timeseries · bytes</text>
<polyline points="292,488 332,474 372,488 412,474 452,488 492,474 532,488" fill="none" stroke="#3274d9" stroke-width="1.5" opacity="0.8"/>
<rect x="546" y="358" width="260" height="234" fill="#181b1f" stroke="#2c3235" rx="3"/>
<rect x="546" y="358" width="260" height="3" fill="#3274d9" rx="2"/>
<text x="554" y="376" fill="#d8d9da" font-size="11" font-weight="500">Filesystem used by mount</text>
<text x="554" y="390" fill="#8e8e8e" font-size="9">timeseries · percent</text>
<polyline points="556,488 596,474 636,488 676,474 716,488 756,474 796,488" fill="none" stroke="#3274d9" stroke-width="1.5" opacity="0.8"/>
<rect x="810" y="358" width="260" height="234" fill="#181b1f" stroke="#2c3235" rx="3"/>
<rect x="810" y="358" width="260" height="3" fill="#3274d9" rx="2"/>
<text x="818" y="376" fill="#d8d9da" font-size="11" font-weight="500">Network throughput</text>
<text x="818" y="390" fill="#8e8e8e" font-size="9">timeseries · Bps</text>
<polyline points="820,488 860,474 900,488 940,474 980,488 1020,474 1060,488" fill="none" stroke="#3274d9" stroke-width="1.5" opacity="0.8"/>
<rect x="16" y="596" width="1056" height="26" fill="#22252b" rx="3"/>
<text x="26" y="615" fill="#d8d9da" font-size="12" font-weight="600">▾ Saturation</text>
<rect x="18" y="628" width="348" height="234" fill="#181b1f" stroke="#2c3235" rx="3"/>
<rect x="18" y="628" width="348" height="3" fill="#3274d9" rx="2"/>
<text x="26" y="646" fill="#d8d9da" font-size="11" font-weight="500">Load average vs cores</text>
<text x="26" y="660" fill="#8e8e8e" font-size="9">timeseries · short</text>
<polyline points="28,758 83,744 137,758 192,744 247,758 301,744 356,758" fill="none" stroke="#3274d9" stroke-width="1.5" opacity="0.8"/>
<rect x="370" y="628" width="348" height="234" fill="#181b1f" stroke="#2c3235" rx="3"/>
<rect x="370" y="628" width="348" height="3" fill="#3274d9" rx="2"/>
<text x="378" y="646" fill="#d8d9da" font-size="11" font-weight="500">Memory headroom (available)</text>
<text x="378" y="660" fill="#8e8e8e" font-size="9">timeseries · bytes</text>
<polyline points="380,758 435,744 489,758 544,744 599,758 653,744 708,758" fill="none" stroke="#3274d9" stroke-width="1.5" opacity="0.8"/>
<rect x="722" y="628" width="348" height="234" fill="#181b1f" stroke="#2c3235" rx="3"/>
<rect x="722" y="628" width="348" height="3" fill="#3274d9" rx="2"/>
<text x="730" y="646" fill="#d8d9da" font-size="11" font-weight="500">iowait — disk pressure on the CPU</text>
<text x="730" y="660" fill="#8e8e8e" font-size="9">timeseries · percent</text>
<polyline points="732,758 787,744 841,758 896,744 951,758 1005,744 1060,758" fill="none" stroke="#3274d9" stroke-width="1.5" opacity="0.8"/>
<rect x="16" y="866" width="1056" height="26" fill="#22252b" rx="3"/>
<text x="26" y="885" fill="#d8d9da" font-size="12" font-weight="600">▾ Errors</text>
<rect x="18" y="898" width="348" height="234" fill="#181b1f" stroke="#2c3235" rx="3"/>
<rect x="18" y="898" width="348" height="3" fill="#3274d9" rx="2"/>
<text x="26" y="916" fill="#d8d9da" font-size="11" font-weight="500">NIC receive errors &amp; drops</text>
<text x="26" y="930" fill="#8e8e8e" font-size="9">timeseries · pps</text>
<polyline points="28,1028 83,1014 137,1028 192,1014 247,1028 301,1014 356,1028" fill="none" stroke="#3274d9" stroke-width="1.5" opacity="0.8"/>
<rect x="370" y="898" width="348" height="234" fill="#181b1f" stroke="#2c3235" rx="3"/>
<rect x="370" y="898" width="348" height="3" fill="#3274d9" rx="2"/>
<text x="378" y="916" fill="#d8d9da" font-size="11" font-weight="500">NIC transmit errors</text>
<text x="378" y="930" fill="#8e8e8e" font-size="9">timeseries · pps</text>
<polyline points="380,1028 435,1014 489,1028 544,1014 599,1028 653,1014 708,1028" fill="none" stroke="#3274d9" stroke-width="1.5" opacity="0.8"/>
<rect x="722" y="898" width="348" height="234" fill="#181b1f" stroke="#2c3235" rx="3"/>
<rect x="722" y="898" width="348" height="3" fill="#3274d9" rx="2"/>
<text x="730" y="916" fill="#d8d9da" font-size="11" font-weight="500">Read-only filesystems</text>
<text x="730" y="930" fill="#8e8e8e" font-size="9">stat · short</text>
<text x="896" y="1032" fill="#3274d9" font-size="20" font-weight="700" text-anchor="middle">●</text>
<rect x="1088" y="56" width="284" height="1080" fill="#181b1f" stroke="#2c3235" rx="4"/>
<text x="1100" y="78" fill="#d8d9da" font-size="12" font-weight="700">What to look for</text>
<circle cx="1106" cy="94" r="4" fill="#3274d9"/>
<text x="1118" y="98" fill="#8e8e8e" font-size="10">Which resource on this host is the most</text>
<text x="1118" y="111" fill="#8e8e8e" font-size="10">utilised right now?</text>
<circle cx="1106" cy="128" r="4" fill="#3274d9"/>
<text x="1118" y="132" fill="#8e8e8e" font-size="10">Is any resource saturated — run queue</text>
<text x="1118" y="145" fill="#8e8e8e" font-size="10">deep, memory exhausted, disk full?</text>
<circle cx="1106" cy="162" r="4" fill="#3274d9"/>
<text x="1118" y="166" fill="#8e8e8e" font-size="10">Are the NICs reporting errors or drops?</text>
<circle cx="1106" cy="183" r="4" fill="#3274d9"/>
<text x="1118" y="187" fill="#8e8e8e" font-size="10">Is the host healthy enough to take more</text>
<text x="1118" y="200" fill="#8e8e8e" font-size="10">load, or is it the bottleneck?</text>
<circle cx="1106" cy="217" r="4" fill="#73bf69"/>
<text x="1118" y="221" fill="#8e8e8e" font-size="10">Green: within expected range</text>
<circle cx="1106" cy="238" r="4" fill="#f2cc0c"/>
<text x="1118" y="242" fill="#8e8e8e" font-size="10">Yellow: investigate — approaching a</text>
<text x="1118" y="255" fill="#8e8e8e" font-size="10">limit</text>
<circle cx="1106" cy="272" r="4" fill="#e02f44"/>
<text x="1118" y="276" fill="#8e8e8e" font-size="10">Red: act now — threshold breached</text>
</svg>
