<svg xmlns="http://www.w3.org/2000/svg" width="1404" height="1152" viewBox="0 0 1404 1152" font-family="Inter, Roboto, Arial, sans-serif">
<rect width="1404" height="1152" fill="#0b0c0e"/>
<text x="16" y="30" fill="#d8d9da" font-size="16" font-weight="600">cAdvisor / Container Detail</text>
<text x="16" y="48" fill="#8e8e8e" font-size="11">Schematic layout · datasource: prometheus · uid: cadvisor-container-detail</text>
<rect x="16" y="56" width="1056" height="26" fill="#22252b" rx="3"/>
<text x="26" y="75" fill="#d8d9da" font-size="12" font-weight="600">▾ Headline — limit &amp; throttle pressure</text>
<rect x="18" y="88" width="260" height="234" fill="#181b1f" stroke="#2c3235" rx="3"/>
<rect x="18" y="88" width="260" height="3" fill="#73bf69" rx="2"/>
<text x="26" y="106" fill="#d8d9da" font-size="11" font-weight="500">Memory vs limit</text>
<text x="26" y="120" fill="#8e8e8e" font-size="9">gauge · percent</text>
<text x="148" y="222" fill="#73bf69" font-size="20" font-weight="700" text-anchor="middle">●</text>
<rect x="282" y="88" width="260" height="234" fill="#181b1f" stroke="#2c3235" rx="3"/>
<rect x="282" y="88" width="260" height="3" fill="#73bf69" rx="2"/>
<text x="290" y="106" fill="#d8d9da" font-size="11" font-weight="500">CPU throttle ratio</text>
<text x="290" y="120" fill="#8e8e8e" font-size="9">gauge · percent</text>
<text x="412" y="222" fill="#73bf69" font-size="20" font-weight="700" text-anchor="middle">●</text>
<rect x="546" y="88" width="260" height="234" fill="#181b1f" stroke="#2c3235" rx="3"/>
<rect x="546" y="88" width="260" height="3" fill="#3274d9" rx="2"/>
<text x="554" y="106" fill="#d8d9da" font-size="11" font-weight="500">CPU cores used</text>
<text x="554" y="120" fill="#8e8e8e" font-size="9">stat · short</text>
<text x="676" y="222" fill="#3274d9" font-size="20" font-weight="700" text-anchor="middle">●</text>
<rect x="810" y="88" width="260" height="234" fill="#181b1f" stroke="#2c3235" rx="3"/>
<rect x="810" y="88" width="260" height="3" fill="#3274d9" rx="2"/>
<text x="818" y="106" fill="#d8d9da" font-size="11" font-weight="500">Filesystem used</text>
<text x="818" y="120" fill="#8e8e8e" font-size="9">stat · percent</text>
<text x="940" y="222" fill="#3274d9" font-size="20" font-weight="700" text-anchor="middle">●</text>
<rect x="16" y="326" width="1056" height="26" fill="#22252b" rx="3"/>
<text x="26" y="345" fill="#d8d9da" font-size="12" font-weight="600">▾ CPU</text>
<rect x="18" y="358" width="1052" height="234" fill="#181b1f" stroke="#2c3235" rx="3"/>
<rect x="18" y="358" width="1052" height="3" fill="#3274d9" rx="2"/>
<text x="26" y="376" fill="#d8d9da" font-size="11" font-weight="500">CPU usage vs throttling</text>
<text x="26" y="390" fill="#8e8e8e" font-size="9">timeseries · short</text>
<polyline points="28,488 200,474 372,488 544,474 716,488 888,474 1060,488" fill="none" stroke="#3274d9" stroke-width="1.5" opacity="0.8"/>
<rect x="16" y="596" width="1056" height="26" fill="#22252b" rx="3"/>
<text x="26" y="615" fill="#d8d9da" font-size="12" font-weight="600">▾ Memory</text>
<rect x="18" y="628" width="1052" height="234" fill="#181b1f" stroke="#2c3235" rx="3"/>
<rect x="18" y="628" width="1052" height="3" fill="#3274d9" rx="2"/>
<text x="26" y="646" fill="#d8d9da" font-size="11" font-weight="500">Working set vs RSS vs limit</text>
<text x="26" y="660" fill="#8e8e8e" font-size="9">timeseries · bytes</text>
<polyline points="28,758 200,744 372,758 544,744 716,758 888,744 1060,758" fill="none" stroke="#3274d9" stroke-width="1.5" opacity="0.8"/>
<rect x="16" y="866" width="1056" height="26" fill="#22252b" rx="3"/>
<text x="26" y="885" fill="#d8d9da" font-size="12" font-weight="600">▾ Filesystem &amp; network</text>
<rect x="18" y="898" width="348" height="234" fill="#181b1f" stroke="#2c3235" rx="3"/>
<rect x="18" y="898" width="348" height="3" fill="#3274d9" rx="2"/>
<text x="26" y="916" fill="#d8d9da" font-size="11" font-weight="500">Filesystem usage vs limit</text>
<text x="26" y="930" fill="#8e8e8e" font-size="9">timeseries · bytes</text>
<polyline points="28,1028 83,1014 137,1028 192,1014 247,1028 301,1014 356,1028" fill="none" stroke="#3274d9" stroke-width="1.5" opacity="0.8"/>
<rect x="370" y="898" width="348" height="234" fill="#181b1f" stroke="#2c3235" rx="3"/>
<rect x="370" y="898" width="348" height="3" fill="#3274d9" rx="2"/>
<text x="378" y="916" fill="#d8d9da" font-size="11" font-weight="500">Network throughput</text>
<text x="378" y="930" fill="#8e8e8e" font-size="9">timeseries · Bps</text>
<polyline points="380,1028 435,1014 489,1028 544,1014 599,1028 653,1014 708,1028" fill="none" stroke="#3274d9" stroke-width="1.5" opacity="0.8"/>
<rect x="722" y="898" width="348" height="234" fill="#181b1f" stroke="#2c3235" rx="3"/>
<rect x="722" y="898" width="348" height="3" fill="#3274d9" rx="2"/>
<text x="730" y="916" fill="#d8d9da" font-size="11" font-weight="500">Network errors</text>
<text x="730" y="930" fill="#8e8e8e" font-size="9">timeseries · pps</text>
<polyline points="732,1028 787,1014 841,1028 896,1014 951,1028 1005,1014 1060,1028" fill="none" stroke="#3274d9" stroke-width="1.5" opacity="0.8"/>
<rect x="1088" y="56" width="284" height="1080" fill="#181b1f" stroke="#2c3235" rx="4"/>
<text x="1100" y="78" fill="#d8d9da" font-size="12" font-weight="700">What to look for</text>
<circle cx="1106" cy="94" r="4" fill="#3274d9"/>
<text x="1118" y="98" fill="#8e8e8e" font-size="10">How close is this container to its</text>
<text x="1118" y="111" fill="#8e8e8e" font-size="10">memory limit?</text>
<circle cx="1106" cy="128" r="4" fill="#3274d9"/>
<text x="1118" y="132" fill="#8e8e8e" font-size="10">Is the container being CPU throttled,</text>
<text x="1118" y="145" fill="#8e8e8e" font-size="10">and how hard?</text>
<circle cx="1106" cy="162" r="4" fill="#3274d9"/>
<text x="1118" y="166" fill="#8e8e8e" font-size="10">Is its filesystem filling up?</text>
<circle cx="1106" cy="183" r="4" fill="#3274d9"/>
<text x="1118" y="187" fill="#8e8e8e" font-size="10">What is its network throughput and is it</text>
<text x="1118" y="200" fill="#8e8e8e" font-size="10">erroring?</text>
<circle cx="1106" cy="217" r="4" fill="#73bf69"/>
<text x="1118" y="221" fill="#8e8e8e" font-size="10">Green: within expected range</text>
<circle cx="1106" cy="238" r="4" fill="#f2cc0c"/>
<text x="1118" y="242" fill="#8e8e8e" font-size="10">Yellow: investigate — approaching a</text>
<text x="1118" y="255" fill="#8e8e8e" font-size="10">limit</text>
<circle cx="1106" cy="272" r="4" fill="#e02f44"/>
<text x="1118" y="276" fill="#8e8e8e" font-size="10">Red: act now — threshold breached</text>
</svg>
